<?xml version="1.0" encoding="UTF-8" standalone="no"?>
<svg width="100%" height="100%" viewBox="0 0 250 250" version="1.1" xmlns="http://www.w3.org/2000/svg" xmlns:xlink="http://www.w3.org/1999/xlink" xml:space="preserve" xmlns:serif="http://www.serif.com/" style="fill-rule:evenodd;clip-rule:evenodd;stroke-linejoin:round;stroke-miterlimit:2;">
    <g transform="matrix(1.1957,0,0,1.1957,-234.102,-181.612)">
        <g>
            <path d="M246.947,198.312L244.422,200.838L240.485,196.9L236.639,200.746L243.851,207.958L252.414,199.396L240.649,186.178C228.223,196.293 219.871,208.089 215.369,221.524L231.188,227.874L236.457,217.959L228.235,212.854L225.586,217.674L230.624,220.407L228.921,223.546L220.726,219.101L226.919,207.833L241.178,216.686L232.836,232.384L210.965,223.604L211.453,222.031C216.172,206.811 225.489,193.543 239.752,182.322L241.073,181.283L257.322,199.539L243.851,213.009L231.588,200.746L240.485,191.849L246.947,198.312Z"/>
            <g transform="matrix(0.809408,0.587247,-0.587247,0.809408,207.81,-127.499)">
                <path d="M246.947,198.312L244.422,200.838L240.485,196.9L236.639,200.746L243.851,207.958L252.414,199.396L240.649,186.178C228.223,196.293 219.871,208.089 215.369,221.524L231.188,227.874L236.457,217.959L228.235,212.854L225.586,217.674L230.624,220.407L228.921,223.546L220.726,219.101L226.919,207.833L241.178,216.686L232.836,232.384L210.965,223.604L211.453,222.031C216.172,206.811 225.489,193.543 239.752,182.322L241.073,181.283L257.322,199.539L243.851,213.009L231.588,200.746L240.485,191.849L246.947,198.312Z"/>
            </g>
            <g transform="matrix(0.31286,0.949799,-0.949799,0.31286,449.895,-109.069)">
                <path d="M246.947,198.312L244.422,200.838L240.485,196.9L236.639,200.746L243.851,207.958L252.414,199.396L240.649,186.178C228.223,196.293 219.871,208.089 215.369,221.524L231.188,227.874L236.457,217.959L228.235,212.854L225.586,217.674L230.624,220.407L228.921,223.546L220.726,219.101L226.919,207.833L241.178,216.686L232.836,232.384L210.965,223.604L211.453,222.031C216.172,206.811 225.489,193.543 239.752,182.322L241.073,181.283L257.322,199.539L243.851,213.009L231.588,200.746L240.485,191.849L246.947,198.312Z"/>
            </g>
            <g transform="matrix(-0.301081,0.953598,-0.953598,-0.301081,635.252,47.2046)">
                <path d="M246.947,198.312L244.422,200.838L240.485,196.9L236.639,200.746L243.851,207.958L252.414,199.396L240.649,186.178C228.223,196.293 219.871,208.089 215.369,221.524L231.188,227.874L236.457,217.959L228.235,212.854L225.586,217.674L230.624,220.407L228.921,223.546L220.726,219.101L226.919,207.833L241.178,216.686L232.836,232.384L210.965,223.604L211.453,222.031C216.172,206.811 225.489,193.543 239.752,182.322L241.073,181.283L257.322,199.539L243.851,213.009L231.588,200.746L240.485,191.849L246.947,198.312Z"/>
            </g>
            <g transform="matrix(-0.806814,0.590806,-0.590806,-0.806814,694.118,285.83)">
                <path d="M246.947,198.312L244.422,200.838L240.485,196.9L236.639,200.746L243.851,207.958L252.414,199.396L240.649,186.178C228.223,196.293 219.871,208.089 215.369,221.524L231.188,227.874L236.457,217.959L228.235,212.854L225.586,217.674L230.624,220.407L228.921,223.546L220.726,219.101L226.919,207.833L241.178,216.686L232.836,232.384L210.965,223.604L211.453,222.031C216.172,206.811 225.489,193.543 239.752,182.322L241.073,181.283L257.322,199.539L243.851,213.009L231.588,200.746L240.485,191.849L246.947,198.312Z"/>
            </g>
            <g transform="matrix(-1,-0.000942172,0.000942172,-1,600.413,513.081)">
                <path d="M246.947,198.312L244.422,200.838L240.485,196.9L236.639,200.746L243.851,207.958L252.414,199.396L240.649,186.178C228.223,196.293 219.871,208.089 215.369,221.524L231.188,227.874L236.457,217.959L228.235,212.854L225.586,217.674L230.624,220.407L228.921,223.546L220.726,219.101L226.919,207.833L241.178,216.686L232.836,232.384L210.965,223.604L211.453,222.031C216.172,206.811 225.489,193.543 239.752,182.322L241.073,181.283L257.322,199.539L243.851,213.009L231.588,200.746L240.485,191.849L246.947,198.312Z"/>
            </g>
            <g transform="matrix(-0.805596,-0.592466,0.592466,-0.805596,390.362,640.887)">
                <path d="M246.947,198.312L244.422,200.838L240.485,196.9L236.639,200.746L243.851,207.958L252.414,199.396L240.649,186.178C228.223,196.293 219.871,208.089 215.369,221.524L231.188,227.874L236.457,217.959L228.235,212.854L225.586,217.674L230.624,220.407L228.921,223.546L220.726,219.101L226.919,207.833L241.178,216.686L232.836,232.384L210.965,223.604L211.453,222.031C216.172,206.811 225.489,193.543 239.752,182.322L241.073,181.283L257.322,199.539L243.851,213.009L231.588,200.746L240.485,191.849L246.947,198.312Z"/>
            </g>
            <g transform="matrix(-0.30479,-0.95242,0.95242,-0.30479,147.664,620.585)">
                <path d="M246.947,198.312L244.422,200.838L240.485,196.9L236.639,200.746L243.851,207.958L252.414,199.396L240.649,186.178C228.223,196.293 219.871,208.089 215.369,221.524L231.188,227.874L236.457,217.959L228.235,212.854L225.586,217.674L230.624,220.407L228.921,223.546L220.726,219.101L226.919,207.833L241.178,216.686L232.836,232.384L210.965,223.604L211.453,222.031C216.172,206.811 225.489,193.543 239.752,182.322L241.073,181.283L257.322,199.539L243.851,213.009L231.588,200.746L240.485,191.849L246.947,198.312Z"/>
            </g>
            <g transform="matrix(0.310717,-0.950503,0.950503,0.310717,-36.6976,462.194)">
                <path d="M246.947,198.312L244.422,200.838L240.485,196.9L236.639,200.746L243.851,207.958L252.414,199.396L240.649,186.178C228.223,196.293 219.871,208.089 215.369,221.524L231.188,227.874L236.457,217.959L228.235,212.854L225.586,217.674L230.624,220.407L228.921,223.546L220.726,219.101L226.919,207.833L241.178,216.686L232.836,232.384L210.965,223.604L211.453,222.031C216.172,206.811 225.489,193.543 239.752,182.322L241.073,181.283L257.322,199.539L243.851,213.009L231.588,200.746L240.485,191.849L246.947,198.312Z"/>
            </g>
            <g transform="matrix(0.80758,-0.589757,0.589757,0.80758,-93.4245,226.457)">
                <path d="M246.947,198.312L244.422,200.838L240.485,196.9L236.639,200.746L243.851,207.958L252.414,199.396L240.649,186.178C228.223,196.293 219.871,208.089 215.369,221.524L231.188,227.874L236.457,217.959L228.235,212.854L225.586,217.674L230.624,220.407L228.921,223.546L220.726,219.101L226.919,207.833L241.178,216.686L232.836,232.384L210.965,223.604L211.453,222.031C216.172,206.811 225.489,193.543 239.752,182.322L241.073,181.283L257.322,199.539L243.851,213.009L231.588,200.746L240.485,191.849L246.947,198.312Z"/>
            </g>
        </g>
        <g transform="matrix(1.56289,0,0,1.56289,-167.503,-182.599)">
            <path d="M299.337,238.861C322.539,238.861 341.376,257.698 341.376,280.9C341.376,304.102 322.539,322.939 299.337,322.939C276.135,322.939 257.298,304.102 257.298,280.9C257.298,257.698 276.135,238.861 299.337,238.861ZM299.337,241.146C277.396,241.146 259.583,258.959 259.583,280.9C259.583,302.84 277.396,320.654 299.337,320.654C321.278,320.654 339.091,302.84 339.091,280.9C339.091,258.959 321.278,241.146 299.337,241.146Z"/>
        </g>
        <g transform="matrix(0.687849,0,0,0.687849,158.785,-6.9784)">
            <path d="M203.758,354.224L214.879,354.224L214.879,328.992C214.956,323.666 215.653,318.959 217.606,315.508C213.184,317.052 207.725,317.557 201.542,317.339L178.485,317.339C166.402,317.709 159.807,323.929 159.807,336.018C159.807,350.876 169.446,358.941 184.229,360.439L185.98,360.439L185.98,362.469L152.48,403.462L166.422,403.462L199.093,361.548L233.194,361.548C242.044,363.273 248.137,367.755 247.968,378.499C246.492,389.613 240.132,395.842 229.084,397.383C225.762,397.715 219.618,397.803 214.986,397.702L214.986,365.598L203.958,365.598L203.958,396.285C198.177,395.872 194.785,393.38 191.992,391.401C193.39,394.199 194.503,397.283 194.906,401.077L203.749,401.077L203.749,439.062C203.749,440.791 202.839,442.392 201.353,443.276C200.738,443.641 200.247,443.934 200.247,443.934L218.577,443.934C218.577,443.934 217.857,443.53 217.052,443.079C215.709,442.327 214.877,440.907 214.878,439.367C214.88,430.583 214.889,401.6 214.889,401.6C222.706,401.799 229.574,401.325 233.227,400.755C247.295,398.511 259.072,391.909 259.072,377.663C258.707,364.227 250.511,358.622 237.938,357.394L193.231,357.394C179.856,357.314 172.362,350.487 170.952,338.442C171.774,327.905 176.59,321.363 187.989,321.405L203.8,321.405L203.758,354.224Z"/>
        </g>
    </g>
</svg>
