<?xml version="1.0" encoding="UTF-8" standalone="no"?>
<!DOCTYPE svg PUBLIC "-//W3C//DTD SVG 1.1//EN" "http://www.w3.org/Graphics/SVG/1.1/DTD/svg11.dtd">
<svg width="100%" height="100%" viewBox="0 0 200 200" version="1.1" xmlns="http://www.w3.org/2000/svg" xmlns:xlink="http://www.w3.org/1999/xlink" xml:space="preserve" xmlns:serif="http://www.serif.com/" style="fill-rule:evenodd;clip-rule:evenodd;stroke-linejoin:round;stroke-miterlimit:2;">
    <g transform="matrix(1.06612,0,0,1.02111,-0.643107,-1.07193)">
        <path d="M188.2,50.016L188.2,147.949C188.2,174.974 167.185,196.915 141.301,196.915L47.502,196.915C21.618,196.915 0.603,174.974 0.603,147.949L0.603,50.016C0.603,22.991 21.618,1.05 47.502,1.05L141.301,1.05C167.185,1.05 188.2,22.991 188.2,50.016Z" style="fill:rgb(202,175,142);"/>
    </g>
    <g transform="matrix(1.25091,0,0,1.25091,-157.406,-374.995)">
        <g>
            <path d="M203.758,354.224L214.879,354.224L214.879,328.992C214.956,323.666 215.653,318.959 217.606,315.508C213.184,317.052 207.725,317.557 201.542,317.339L178.485,317.339C166.402,317.709 159.807,323.929 159.807,336.018C159.807,350.876 169.446,358.941 184.229,360.439L185.98,360.439L185.98,362.469L152.48,403.462L166.422,403.462L199.093,361.548L233.194,361.548C242.044,363.273 248.137,367.755 247.968,378.499C246.492,389.613 240.132,395.842 229.084,397.383C225.762,397.715 219.618,397.803 214.986,397.702L214.986,365.598L203.958,365.598L203.958,396.285C198.177,395.872 194.785,393.38 191.992,391.401C193.39,394.199 194.503,397.283 194.906,401.077L203.749,401.077L203.749,437.776C203.749,440.302 202.419,442.641 200.248,443.933C200.247,443.933 200.247,443.934 200.247,443.934L218.577,443.934C218.577,443.934 218.142,443.69 217.57,443.369C215.907,442.438 214.877,440.68 214.878,438.774C214.881,429.352 214.889,401.6 214.889,401.6C222.706,401.799 229.574,401.325 233.227,400.755C247.295,398.511 259.072,391.909 259.072,377.663C258.707,364.227 250.511,358.622 237.938,357.394L193.231,357.394C179.856,357.314 172.362,350.487 170.952,338.442C171.774,327.905 176.59,321.363 187.989,321.405L203.8,321.405L203.758,354.224Z" style="fill:rgb(16,10,0);"/>
        </g>
    </g>
</svg>
