<?xml version="1.0" encoding="UTF-8" standalone="no"?>
<!DOCTYPE svg PUBLIC "-//W3C//DTD SVG 1.1//EN" "http://www.w3.org/Graphics/SVG/1.1/DTD/svg11.dtd">
<svg width="100%" height="100%" viewBox="0 0 940 330" version="1.1" xmlns="http://www.w3.org/2000/svg" xmlns:xlink="http://www.w3.org/1999/xlink" xml:space="preserve" xmlns:serif="http://www.serif.com/" style="fill-rule:evenodd;clip-rule:evenodd;stroke-linejoin:round;stroke-miterlimit:2;">
    <g transform="matrix(7.61557,0,0,7.61586,-2127.87,-191.182)">
        <path d="M293.693,38.52C292.917,37.231 291.877,36.455 290.573,36.191C294.47,35.591 296.418,33.833 296.418,30.933C296.433,27.432 293.576,25.688 287.849,25.688L279.411,25.688L279.411,26.465C279.47,26.479 279.543,26.509 279.646,26.523C280.188,26.626 280.525,26.684 280.656,26.728C280.788,26.772 280.993,26.89 281.272,27.051C281.843,27.388 281.902,27.915 281.902,28.838L281.902,41.435C281.902,42.3 281.711,42.886 281.33,43.208C281.067,43.413 280.422,43.618 279.411,43.809L279.411,44.585L288.347,44.585L288.347,43.809C288.288,43.794 288.215,43.765 288.112,43.75C287.57,43.647 287.248,43.574 287.116,43.53C286.985,43.486 286.779,43.384 286.501,43.208C285.944,42.871 285.857,42.358 285.857,41.435L285.857,36.396C286.677,36.44 287.351,36.631 287.893,36.997C288.42,37.363 288.977,38.022 289.548,38.975L291.467,42.153C292.068,43.164 292.785,43.896 293.62,44.365C294.455,44.834 295.525,45.068 296.843,45.068C297.839,45.068 298.674,44.907 299.362,44.585L299.362,43.779C298.586,43.999 297.839,43.838 297.121,43.296C296.403,42.754 295.788,42.051 295.276,41.172L293.693,38.52ZM288.025,26.89C290.852,26.89 292.258,28.325 292.258,31.182C292.258,32.427 291.906,33.408 291.203,34.126C290.5,34.858 289.24,35.225 287.424,35.225L285.857,35.225L285.857,28.267C285.857,27.783 286.003,27.432 286.296,27.212C286.589,26.992 287.16,26.89 288.025,26.89Z"/>
        <path d="M306.496,44.849C308.532,44.849 310.276,44.219 311.711,42.959C313.132,41.699 313.85,40.015 313.85,37.891C313.85,35.825 313.176,34.184 311.843,32.954C310.495,31.724 308.825,31.108 306.818,31.108C304.782,31.108 303.039,31.738 301.618,32.998C300.197,34.272 299.48,35.957 299.48,38.081C299.48,40.146 300.153,41.787 301.486,43.003C302.819,44.233 304.489,44.849 306.496,44.849ZM306.906,43.779C305.749,43.779 304.856,43.135 304.226,41.846C303.596,40.571 303.288,39.062 303.288,37.349C303.288,35.693 303.581,34.419 304.167,33.525C304.738,32.632 305.485,32.192 306.408,32.192C307.566,32.192 308.459,32.837 309.089,34.111C309.719,35.386 310.027,36.894 310.027,38.608C310.027,40.264 309.734,41.538 309.162,42.432C308.576,43.325 307.829,43.779 306.906,43.779Z"/>
        <path d="M322.668,44.585L322.668,43.809C322.302,43.735 322.053,43.662 321.921,43.618C321.775,43.574 321.599,43.501 321.408,43.384C320.998,43.149 320.896,42.768 320.896,42.124L320.896,35.019C321.789,33.862 322.8,33.276 323.899,33.276C325.232,33.276 325.905,34.184 325.905,36.001L325.905,42.124C325.905,42.768 325.803,43.149 325.363,43.384C325.144,43.501 324.953,43.574 324.792,43.618C324.631,43.662 324.353,43.735 323.957,43.809L323.957,44.585L331.399,44.585L331.399,43.809C331.018,43.735 330.754,43.662 330.593,43.618C330.432,43.574 330.241,43.501 330.036,43.384C329.611,43.149 329.509,42.768 329.509,42.124L329.509,34.99C330.432,33.848 331.428,33.276 332.497,33.276C333.86,33.276 334.548,34.184 334.548,36.001L334.548,42.124C334.548,42.768 334.431,43.149 334.021,43.384C333.801,43.501 333.625,43.574 333.464,43.618C333.303,43.662 333.039,43.735 332.658,43.809L332.658,44.585L340.085,44.585L340.085,43.809C339.69,43.735 339.426,43.662 339.265,43.618C339.104,43.574 338.913,43.501 338.693,43.384C338.254,43.149 338.137,42.768 338.137,42.124L338.137,35.737C338.137,32.646 336.833,31.108 334.24,31.108C332.351,31.108 330.769,32.075 329.465,33.994L329.289,33.994C328.835,32.075 327.605,31.108 325.598,31.108C324.543,31.108 323.65,31.357 322.917,31.855C322.17,32.368 321.452,33.071 320.749,33.994L320.075,33.994L321.013,31.475L320.412,30.903C319.035,31.767 317.336,32.339 315.315,32.646L315.315,33.364C316.135,33.32 316.677,33.437 316.926,33.686C317.175,33.935 317.292,34.36 317.292,34.961L317.292,42.124C317.292,42.768 317.19,43.149 316.779,43.384C316.56,43.501 316.369,43.574 316.193,43.618C316.003,43.662 315.71,43.735 315.315,43.809L315.315,44.585L322.668,44.585Z"/>
        <path d="M353.855,35.708C353.855,32.646 352.419,31.108 349.533,31.108C347.995,31.108 346.413,31.46 344.787,32.178C343.161,32.895 342.341,33.745 342.341,34.741C342.341,35.503 342.898,36.059 343.659,36.059C344.157,36.059 344.582,35.854 344.934,35.43C345.285,35.019 345.666,34.258 346.062,33.159C346.252,32.617 346.618,32.339 347.131,32.339C348.23,32.339 349.035,32.544 349.519,32.969C350.002,33.393 350.251,34.184 350.251,35.342L350.251,35.854C350.134,36.045 349.973,36.25 349.812,36.382C349.651,36.514 349.314,36.675 349.152,36.733C348.977,36.807 348.508,36.953 348.347,37.012C348.23,37.056 347.512,37.231 347.409,37.261C346.516,37.524 345.842,37.715 345.417,37.847C344.992,37.978 344.465,38.184 343.85,38.447C343.22,38.726 342.766,38.989 342.487,39.238C341.916,39.766 341.403,40.571 341.403,41.611C341.403,42.637 341.755,43.428 342.473,43.97C343.176,44.512 344.055,44.79 345.124,44.79C346.985,44.79 348.684,43.984 350.251,42.388C350.295,43.017 350.573,43.574 351.071,44.058C351.569,44.541 352.155,44.79 352.815,44.79C353.943,44.468 355.041,43.852 356.11,42.959L356.11,42.183C354.865,42.9 353.855,42.681 353.855,41.728L353.855,35.708ZM347.131,42.959C345.944,42.959 345.095,42.124 345.095,40.835C345.095,39.619 345.959,38.755 347.673,38.257L350.251,37.539L350.251,41.128C349.299,42.344 348.259,42.959 347.131,42.959Z"/>
        <path d="M288.347,67.585L288.347,66.809C288.288,66.794 288.215,66.765 288.112,66.75C287.57,66.647 287.248,66.574 287.116,66.53C286.985,66.486 286.779,66.384 286.501,66.208C285.944,65.871 285.857,65.358 285.857,64.435L285.857,51.267C285.857,50.314 286.34,49.89 288.054,49.89C291.086,49.89 292.61,51.398 292.61,54.416C292.61,55.866 292.214,57.023 291.423,57.858C290.617,58.693 289.226,59.118 287.219,59.118C286.97,59.118 286.853,59.309 286.853,59.704C286.853,60.1 286.97,60.29 287.219,60.29C290.193,60.29 292.536,59.777 294.25,58.752C295.964,57.726 296.814,56.218 296.814,54.24C296.799,50.534 293.781,48.688 287.746,48.688L279.411,48.688L279.411,49.465C279.47,49.479 279.543,49.509 279.646,49.523C280.188,49.626 280.525,49.684 280.656,49.728C280.788,49.772 280.993,49.89 281.272,50.051C281.843,50.388 281.902,50.915 281.902,51.838L281.902,64.435C281.902,65.3 281.711,65.886 281.33,66.208C281.067,66.413 280.422,66.618 279.411,66.809L279.411,67.585L288.347,67.585Z"/>
        <path d="M304.065,67.849C305.105,67.849 305.998,67.614 306.76,67.16C307.522,66.706 308.298,66.047 309.074,65.212L309.528,65.212L309.353,67.585L314.48,67.585L314.48,66.809C313.659,66.662 313.132,66.442 312.883,66.149C312.634,65.871 312.502,65.432 312.502,64.831L312.502,54.211C311.184,54.445 309.367,54.504 307.068,54.387L307.068,55.104C307.522,55.178 307.859,55.251 308.078,55.309C308.488,55.441 308.899,55.793 308.899,56.511L308.899,64.201C307.917,65.197 306.906,65.695 305.896,65.695C304.445,65.695 303.713,64.831 303.713,63.088L303.713,54.211C302.395,54.445 300.578,54.504 298.278,54.387L298.278,55.104C298.733,55.178 299.069,55.251 299.289,55.309C299.699,55.441 300.11,55.793 300.11,56.511L300.11,63.234C300.11,66.31 301.428,67.849 304.065,67.849Z"/>
        <path d="M323.474,67.585L323.474,66.809C322.888,66.706 322.478,66.618 322.243,66.545C321.76,66.398 321.277,65.959 321.277,65.124L321.277,47.546L320.676,46.975C319.196,47.839 317.468,48.41 315.49,48.688L315.49,49.406C316.413,49.509 316.999,49.699 317.277,49.977C317.556,50.256 317.688,50.695 317.688,51.296L317.688,65.124C317.688,65.549 317.585,65.871 317.395,66.091C317.19,66.325 316.97,66.472 316.721,66.545C316.472,66.618 316.062,66.706 315.49,66.809L315.49,67.585L323.474,67.585Z"/>
        <path d="M329.641,67.849C331.34,67.849 332.732,67.482 333.801,66.75C334.87,66.032 335.398,65.021 335.398,63.718C335.398,62.385 334.856,61.345 333.713,60.627C333.142,60.261 332.644,59.997 332.234,59.807C331.823,59.616 331.267,59.411 330.564,59.162C328.762,58.517 327.956,57.814 327.956,56.818C327.956,55.822 328.733,55.163 330.022,55.163C331.589,55.163 332.658,56.13 333.215,58.049L334.343,58.049L334.343,55.251C333.068,54.489 331.721,54.108 330.329,54.108C328.747,54.108 327.487,54.46 326.535,55.163C325.583,55.866 325.114,56.833 325.114,58.049C325.114,59.235 325.525,60.143 326.33,60.803C327.136,61.462 328.147,62.018 329.392,62.458C330.461,62.839 331.223,63.19 331.677,63.527C332.131,63.864 332.365,64.333 332.365,64.948C332.365,66.061 331.56,66.809 329.963,66.809C328.161,66.809 326.931,65.812 326.242,63.835L325.085,63.835L325.144,66.662C326.403,67.453 327.898,67.849 329.641,67.849Z"/>
        <path d="M345.974,65.695C344.582,65.695 343.44,65.226 342.561,64.289C341.667,63.351 341.154,62.106 341.023,60.539L349.797,60.539C350.398,59.089 350.163,57.653 349.109,56.232C348.039,54.811 346.443,54.108 344.304,54.108C342.341,54.108 340.686,54.738 339.338,56.013C337.99,57.287 337.317,58.972 337.317,61.052C337.317,63.102 337.99,64.743 339.338,65.988C340.686,67.233 342.385,67.849 344.45,67.849C345.813,67.849 346.985,67.57 347.966,66.999C348.947,66.442 349.607,65.666 349.973,64.67L349.402,64.26C348.713,65.212 347.57,65.695 345.974,65.695ZM344.026,55.222C344.978,55.222 345.666,55.646 346.076,56.511C346.486,57.375 346.604,58.342 346.428,59.426L340.993,59.426C341.096,56.716 342.341,55.222 344.026,55.222Z"/>
        <path d="M357.004,51.12C357.443,50.695 357.663,50.197 357.663,49.611C357.663,49.04 357.443,48.542 357.019,48.132C356.594,47.722 356.081,47.517 355.481,47.517C354.88,47.517 354.353,47.722 353.928,48.132C353.503,48.542 353.283,49.04 353.283,49.611C353.283,50.197 353.503,50.695 353.943,51.12C354.382,51.545 354.895,51.75 355.481,51.75C356.052,51.75 356.565,51.545 357.004,51.12ZM359.406,67.585L359.406,66.809C359.011,66.735 358.718,66.662 358.542,66.618C358.352,66.574 358.161,66.501 357.956,66.384C357.531,66.149 357.429,65.768 357.429,65.124L357.429,54.475L356.799,53.903C355.583,54.709 353.928,55.28 351.848,55.646L351.848,56.364C352.668,56.467 353.21,56.657 353.459,56.935C353.708,57.214 353.825,57.653 353.825,58.254L353.825,65.124C353.825,65.768 353.723,66.149 353.313,66.384C353.093,66.501 352.902,66.574 352.727,66.618C352.536,66.662 352.243,66.735 351.848,66.809L351.848,67.585L359.406,67.585Z"/>
        <path d="M368.532,67.585L368.532,66.809C368.064,66.735 367.727,66.662 367.522,66.618C367.302,66.574 367.097,66.501 366.877,66.384C366.438,66.149 366.306,65.768 366.306,65.124L366.306,61.315C366.306,60.129 366.628,59.133 367.287,58.327C367.932,57.521 368.869,57.111 370.085,57.111C370.774,57.111 371.418,57.258 372.033,57.536L372.033,54.138C371.652,53.976 371.257,53.903 370.832,53.903C369.03,53.903 367.888,55.28 366.701,58.107L365.881,58.107L366.569,54.475L365.969,53.903C364.46,54.738 362.658,55.324 360.578,55.646L360.578,56.364C361.457,56.437 362.028,56.628 362.307,56.906C362.57,57.184 362.702,57.624 362.702,58.225L362.702,65.124C362.702,65.768 362.614,66.149 362.16,66.384C361.926,66.501 361.721,66.574 361.53,66.618C361.34,66.662 361.018,66.735 360.578,66.809L360.578,67.585L368.532,67.585Z"/>
        <path d="M385.495,58.708C385.495,55.646 384.06,54.108 381.174,54.108C379.636,54.108 378.054,54.46 376.428,55.178C374.802,55.895 373.982,56.745 373.982,57.741C373.982,58.503 374.538,59.059 375.3,59.059C375.798,59.059 376.223,58.854 376.574,58.43C376.926,58.019 377.307,57.258 377.702,56.159C377.893,55.617 378.259,55.339 378.772,55.339C379.87,55.339 380.676,55.544 381.159,55.969C381.643,56.393 381.892,57.184 381.892,58.342L381.892,58.854C381.775,59.045 381.613,59.25 381.452,59.382C381.291,59.514 380.954,59.675 380.793,59.733C380.617,59.807 380.149,59.953 379.987,60.012C379.87,60.056 379.152,60.231 379.05,60.261C378.156,60.524 377.483,60.715 377.058,60.847C376.633,60.978 376.106,61.184 375.49,61.447C374.86,61.726 374.406,61.989 374.128,62.238C373.557,62.766 373.044,63.571 373.044,64.611C373.044,65.637 373.396,66.428 374.113,66.97C374.817,67.512 375.695,67.79 376.765,67.79C378.625,67.79 380.324,66.984 381.892,65.388C381.936,66.017 382.214,66.574 382.712,67.058C383.21,67.541 383.796,67.79 384.455,67.79C385.583,67.468 386.682,66.852 387.751,65.959L387.751,65.183C386.506,65.9 385.495,65.681 385.495,64.728L385.495,58.708ZM378.772,65.959C377.585,65.959 376.735,65.124 376.735,63.835C376.735,62.619 377.6,61.755 379.314,61.257L381.892,60.539L381.892,64.128C380.94,65.344 379.9,65.959 378.772,65.959Z"/>
        <path d="M393.625,67.849C395.324,67.849 396.716,67.482 397.785,66.75C398.855,66.032 399.382,65.021 399.382,63.718C399.382,62.385 398.84,61.345 397.697,60.627C397.126,60.261 396.628,59.997 396.218,59.807C395.808,59.616 395.251,59.411 394.548,59.162C392.746,58.517 391.941,57.814 391.941,56.818C391.941,55.822 392.717,55.163 394.006,55.163C395.573,55.163 396.643,56.13 397.199,58.049L398.327,58.049L398.327,55.251C397.053,54.489 395.705,54.108 394.314,54.108C392.732,54.108 391.472,54.46 390.52,55.163C389.568,55.866 389.099,56.833 389.099,58.049C389.099,59.235 389.509,60.143 390.315,60.803C391.12,61.462 392.131,62.018 393.376,62.458C394.445,62.839 395.207,63.19 395.661,63.527C396.115,63.864 396.35,64.333 396.35,64.948C396.35,66.061 395.544,66.809 393.947,66.809C392.146,66.809 390.915,65.812 390.227,63.835L389.069,63.835L389.128,66.662C390.388,67.453 391.882,67.849 393.625,67.849Z"/>
    </g>
</svg>
