<?xml version="1.0" encoding="UTF-8" standalone="no"?>
<!DOCTYPE svg PUBLIC "-//W3C//DTD SVG 1.1//EN" "http://www.w3.org/Graphics/SVG/1.1/DTD/svg11.dtd">
<svg width="100%" height="100%" viewBox="0 0 128 32" version="1.1" xmlns="http://www.w3.org/2000/svg" xmlns:xlink="http://www.w3.org/1999/xlink" xml:space="preserve" xmlns:serif="http://www.serif.com/" style="fill-rule:evenodd;clip-rule:evenodd;stroke-linejoin:round;stroke-miterlimit:2;">
    <g id="g3243" transform="matrix(0.713186,0,0,-0.713186,-20.5393,115.28)">
        <g id="g11">
            <g id="g32431" serif:id="g3243">
                <path id="path35" d="M28.799,126.541L45.259,161.608L64.87,161.606L61.575,154.6L50.562,154.6L47.533,148.151L57.944,148.151L54.656,141.135L44.237,141.133L40.686,133.555L51.735,133.556L48.447,126.542L28.799,126.541" style="fill:black;fill-rule:nonzero;"/>
                <path id="path37" d="M112.412,149.997C114.574,152.802 116.873,153.15 119.383,153.136L115.791,145.59C115.039,145.607 114.906,145.584 114.137,145.584C112.579,145.581 110.464,144.339 109.316,142.185L101.948,126.544L94.42,126.544L106.712,152.731L113.725,152.731L112.412,149.997" style="fill:black;fill-rule:nonzero;"/>
                <path id="path39" d="M143.934,155.645L146.085,160.23L153.63,160.234L151.458,155.639L143.934,155.645ZM130.27,126.542L142.569,152.73L150.087,152.729L137.797,126.541L130.27,126.542" style="fill:black;fill-rule:nonzero;"/>
                <path id="path41" d="M152.275,152.74L169.483,152.742L166.733,146.918L152.025,132.433L160.684,132.433L157.895,126.507L140.053,126.516L142.904,132.604L157.458,146.883L149.525,146.878L152.275,152.74" style="fill:black;fill-rule:nonzero;"/>
                <path id="path43" d="M92.459,143.161L93.54,145.467C94.129,146.623 94.555,148.6 92.713,148.629C90.592,148.657 89.509,146.534 88.832,145.06L87.947,143.166L92.459,143.161ZM85.717,138.416L83.566,133.835C82.883,132.387 82.933,130.962 84.558,130.96C86.935,130.956 87.508,132.705 89.019,135.611L96.412,135.611C92.488,127.667 89.553,125.696 82.055,125.644C75.779,125.601 73.989,128.751 76.93,135.584L81.037,144.279C84.205,151.01 88.864,153.126 94.709,153.147C100.327,153.157 102.146,148.676 100.001,143.994L97.496,138.418L85.717,138.416" style="fill:black;fill-rule:nonzero;"/>
                <path id="path45" d="M178.797,143.161L179.871,145.467C180.464,146.623 180.888,148.6 179.052,148.629C176.93,148.657 175.853,146.534 175.176,145.06L174.292,143.166L178.797,143.161ZM172.064,138.416L169.918,133.835C169.233,132.387 169.28,130.962 170.912,130.96C173.278,130.956 173.85,132.705 175.363,135.611L182.764,135.611C178.828,127.667 175.891,125.696 168.407,125.644C162.12,125.601 160.332,128.751 163.268,135.584L167.391,144.279C170.555,151.01 175.211,153.126 181.045,153.147C186.674,153.157 188.488,148.676 186.348,143.994L183.843,138.418L172.064,138.416" style="fill:black;fill-rule:nonzero;"/>
                <path id="path47" d="M120.814,137.148C119.791,134.795 118.738,132.766 121.002,132.833C122.387,132.881 123.523,134.332 124.868,137.021L127.824,143.367C129.13,146.262 129.206,147.513 127.649,147.505C126.162,147.484 124.993,146.033 123.63,143.313L120.814,137.148ZM115.313,127.293C111.845,127.335 110.381,130.337 113.85,138.072L117.254,145.299C120.921,152.205 124.926,153.223 128.031,153.207C129.987,153.201 131.658,152.615 131.708,149.997L132.973,152.734L139.986,152.731L127.448,126.028C124.58,119.901 122.201,116.865 113.935,116.805C108.261,116.768 105.68,120.24 107.971,125.096L114.937,125.096C114.096,122.675 114.273,121.976 115.964,121.945C117.861,121.913 118.904,123.082 119.736,124.762L122.171,129.806C120.022,128.132 117.589,127.049 115.313,127.293" style="fill:black;fill-rule:nonzero;"/>
                <path id="path49" d="M69.124,150.165C70.778,152.169 73.36,153.263 75.726,153.25C80.028,153.225 81.064,149.587 79.402,146.029L70.383,126.544L62.942,126.542L71.451,144.948C71.922,146.162 72.516,147.908 70.62,147.889C69.28,147.88 67.775,146.28 67.141,144.923L58.512,126.541L50.982,126.541L63.27,152.731L70.287,152.731L69.124,150.165" style="fill:black;fill-rule:nonzero;"/>
                <path id="path51" d="M198.387,149.996C200.553,152.796 202.191,152.788 205.349,153.133L201.76,145.585C201.009,145.606 200.874,145.581 200.126,145.581C198.553,145.575 196.447,144.332 195.274,142.182L187.923,126.541L180.39,126.541L192.683,152.726L199.703,152.726L198.387,149.996" style="fill:black;fill-rule:nonzero;"/>
            </g>
        </g>
    </g>
</svg>
