<?xml version="1.0" encoding="UTF-8" standalone="no"?>
<!DOCTYPE svg PUBLIC "-//W3C//DTD SVG 1.1//EN" "http://www.w3.org/Graphics/SVG/1.1/DTD/svg11.dtd">
<svg width="100%" height="100%" viewBox="0 0 128 32" version="1.1" xmlns="http://www.w3.org/2000/svg" xmlns:xlink="http://www.w3.org/1999/xlink" xml:space="preserve" xmlns:serif="http://www.serif.com/" style="fill-rule:evenodd;clip-rule:evenodd;stroke-linejoin:round;stroke-miterlimit:2;">
    <g id="g2418" transform="matrix(0.726281,0,0,0.726281,-6.17624,-53.3178)">
        <g id="layer1">
            <g id="g24181" serif:id="g2418">
                <path id="path10" d="M169.651,78.423C169.651,78.394 169.649,78.364 169.649,78.334L169.649,73.866L165.203,73.866L165.198,73.873C165.165,73.873 165.131,73.866 165.098,73.866C162.582,73.866 160.546,75.909 160.546,78.423L160.546,117.018L169.649,117.018L169.649,78.512C169.649,78.48 169.651,78.45 169.651,78.423Z" style="fill:black;"/>
                <path id="path14" d="M184.252,78.423C184.252,78.394 184.247,78.364 184.247,78.334L184.247,73.866L179.806,73.866L179.799,73.873C179.764,73.873 179.733,73.866 179.699,73.866C177.188,73.866 175.146,75.909 175.146,78.423C175.146,78.45 175.151,78.48 175.151,78.512L175.151,117.018L184.247,117.018L184.247,78.512C184.247,78.48 184.252,78.45 184.252,78.423Z" style="fill:black;"/>
                <path id="path18" d="M156.156,105.96L146.977,105.945L146.977,112.184L134.846,112.184L134.846,101.729L156.083,101.729L156.083,99.69L156.101,99.69L156.101,86.917C156.101,84.432 154.111,82.414 151.635,82.37L151.632,82.362L130.298,82.362C127.784,82.362 125.75,84.398 125.75,86.912L125.75,112.465C125.75,114.979 127.794,117.018 130.303,117.018L151.565,117.018C154.067,117.018 156.1,115.003 156.116,112.506L156.156,112.465L156.156,105.96ZM146.977,86.814L146.977,97.272L134.846,97.272L134.846,86.998C134.846,86.971 134.852,86.942 134.852,86.912C134.852,86.882 134.846,86.858 134.846,86.831L134.846,86.814L146.977,86.814Z" style="fill:black;"/>
                <path id="path22" d="M86.828,87.397C86.847,87.239 86.853,87.08 86.853,86.917C86.853,84.432 84.858,82.414 82.381,82.37L82.379,82.362L61.044,82.362C58.528,82.362 56.493,84.398 56.493,86.912L56.493,86.996L56.483,93.512L65.595,93.499L65.595,86.998C65.595,86.971 65.597,86.942 65.597,86.912C65.597,86.882 65.595,86.858 65.595,86.831L65.595,86.814L77.73,86.814L77.73,97.272L56.493,97.272L56.493,112.465C56.493,114.979 58.53,117.018 61.048,117.018L86.828,117.018L86.828,101.729L86.836,101.729L86.836,97.272L86.828,97.272L86.828,87.397ZM65.595,101.729L77.73,101.729L77.73,112.184L65.595,112.184L65.595,101.729Z" style="fill:black;"/>
                <path id="path26" d="M51.924,86.858C51.894,84.373 49.872,82.362 47.381,82.362L38.794,82.362C36.905,82.362 35.282,83.522 34.595,85.165C33.93,83.584 32.397,82.447 30.589,82.37L30.579,82.362L21.818,82.362C19.905,82.362 18.267,83.548 17.595,85.219L17.595,82.362L8.504,82.362L8.504,117.018L17.595,117.018L17.595,86.91L25.817,86.91L25.817,89.08C25.826,89.07 25.829,89.061 25.839,89.053L25.839,117.018L34.935,117.018L34.935,89.318C34.938,89.318 34.941,89.325 34.942,89.329L34.942,86.91L42.884,86.91L42.884,117.018L51.981,117.018L51.981,86.912L51.924,86.858Z" style="fill:black;"/>
                <path id="path30" d="M110.456,97.692L123.099,82.362L117.643,82.362L107.963,94.132L101.405,84.778L101.364,84.76C100.594,83.33 99.088,82.362 97.356,82.362C97.236,82.362 97.12,82.37 97.001,82.375L96.974,82.362L89.131,82.362L102.236,101.079L89.131,117.018L94.51,117.018L104.729,104.636L111.811,114.744L111.893,114.799C112.686,116.126 114.138,117.018 115.799,117.018L123.996,117.018L110.456,97.692Z" style="fill:black;"/>
            </g>
        </g>
    </g>
</svg>
