<?xml version="1.0" encoding="UTF-8" standalone="no"?>
<!DOCTYPE svg PUBLIC "-//W3C//DTD SVG 1.1//EN" "http://www.w3.org/Graphics/SVG/1.1/DTD/svg11.dtd">
<svg width="100%" height="100%" viewBox="0 0 128 32" version="1.1" xmlns="http://www.w3.org/2000/svg" xmlns:xlink="http://www.w3.org/1999/xlink" xml:space="preserve" xmlns:serif="http://www.serif.com/" style="fill-rule:evenodd;clip-rule:evenodd;stroke-linejoin:round;stroke-miterlimit:2;">
    <g transform="matrix(0.694486,0,0,0.694486,-21.9042,-20.4866)">
        <path d="M215.4,53.692C215.445,53.587 215.467,53.474 215.466,53.36C215.463,52.897 215.081,52.518 214.618,52.519L213.911,52.524L200.42,52.5C194.159,52.501 189.008,57.652 189.007,63.913C188.994,65.904 189.514,67.862 190.513,69.584C190.593,69.716 190.637,69.867 190.639,70.022C190.639,70.023 190.639,70.023 190.639,70.024C190.639,70.488 190.258,70.869 189.794,70.869C189.793,70.869 189.793,70.869 189.792,70.869L185.051,70.869C183.208,70.705 181.779,69.142 181.779,67.292C181.78,67.089 181.797,66.886 181.83,66.686C183.019,62.462 185.339,54.354 185.339,54.354L185.674,53.154C185.715,52.797 186.026,52.528 186.385,52.539L190.523,52.53C190.862,52.53 191.17,52.329 191.306,52.018C191.442,51.707 191.706,50.663 191.706,50.565C191.704,50.102 191.322,49.723 190.859,49.724L187.787,49.735C187.786,49.735 187.784,49.735 187.783,49.735C187.321,49.735 186.94,49.354 186.94,48.892C186.94,48.891 186.94,48.889 186.94,48.888C186.94,48.778 188.84,42.157 188.84,42.157C188.84,42.157 189.077,41.364 189.077,41.249C189.077,41.249 189.077,41.249 189.077,41.249C189.077,40.788 188.698,40.409 188.237,40.409C188.236,40.409 188.235,40.409 188.234,40.409L181.169,40.425C180.812,40.426 180.492,40.65 180.369,40.985L180.374,40.985L178.034,49.1C177.94,49.475 177.599,49.739 177.213,49.736L173.265,49.725C172.894,49.724 172.564,49.969 172.457,50.325C172.35,50.681 172.086,51.647 172.086,51.682C172.086,51.684 172.086,51.685 172.086,51.687C172.086,52.149 172.466,52.529 172.928,52.529C172.93,52.529 172.931,52.529 172.933,52.529C172.933,52.529 175.961,52.524 175.962,52.524C176.42,52.524 176.796,52.9 176.796,53.358C176.796,53.359 176.796,53.359 176.796,53.36C176.796,53.414 174.496,61.469 173.203,66C173.097,66.442 173.017,66.89 172.964,67.342C172.925,68.139 173.16,68.925 173.629,69.57C173.731,69.711 173.786,69.881 173.786,70.056C173.784,70.479 173.461,70.837 173.04,70.882L166.65,70.882C165.707,70.888 164.917,70.137 164.876,69.194C164.888,69.054 164.919,68.915 164.97,68.784L167.246,60.826L169.131,54.234C169.131,54.234 169.331,53.484 169.331,53.378C169.329,52.917 168.951,52.539 168.49,52.537L167.29,52.542L154.3,52.516C148.038,52.521 142.887,57.676 142.887,63.938C142.887,65.937 143.412,67.901 144.409,69.634C144.447,69.761 144.474,69.892 144.488,70.024C144.489,70.04 144.489,70.055 144.489,70.071C144.489,70.5 144.136,70.853 143.707,70.853C143.705,70.853 143.702,70.853 143.699,70.853L138.109,70.866C137.182,70.862 136.421,70.1 136.417,69.173C136.417,69.029 136.437,68.885 136.476,68.746L136.55,68.446L136.573,68.446L138.991,60.11C139.142,59.653 139.228,59.176 139.245,58.695C139.245,55.562 137.13,55.815 136.504,54.974C136.504,54.974 136.074,54.598 136.999,54.274C140.402,53.106 143.145,50.532 144.527,47.211C145.186,45.691 145.526,44.052 145.527,42.396C145.525,36.742 141.148,31.971 135.515,31.483C135.126,31.442 134.736,31.421 134.345,31.421L130.86,31.421L130.86,31.436L115.247,31.421L112.602,31.421C112.196,31.422 111.845,31.714 111.769,32.113L111.269,33.985C111.271,34.448 111.654,34.828 112.117,34.826L116.007,34.813C116.467,34.812 116.848,35.188 116.852,35.648C116.852,35.692 114.441,44.12 112.046,52.481L112.053,52.481C109.678,60.764 107.316,69 107.316,69C107.01,70.091 106.007,70.85 104.874,70.848L102.842,70.861C102.831,70.861 102.819,70.861 102.808,70.861C101.899,70.861 101.151,70.113 101.151,69.204C101.151,69.192 101.151,69.18 101.151,69.168C101.199,68.398 105.595,53.421 105.595,53.358C105.592,52.895 105.211,52.516 104.748,52.517L97.7,52.517C97.291,52.516 96.937,52.813 96.868,53.217L92.368,68.817C92.08,69.627 91.326,70.184 90.468,70.223L89.541,70.218C88.695,70.131 88.07,69.364 88.154,68.518C88.154,68.367 88.168,68.217 88.196,68.069L88.287,67.683L89.269,64.447L91.445,56.874C91.499,56.628 91.526,56.376 91.526,56.124C91.526,56.123 91.526,56.123 91.526,56.122C91.526,54.152 89.905,52.53 87.934,52.53C87.396,52.53 86.865,52.651 86.38,52.884L78.651,56.45C78.331,56.548 78.13,56.87 78.183,57.201C78.253,57.519 78.355,57.829 78.489,58.126C78.642,58.337 78.908,58.564 79.176,58.481C79.617,58.333 80.958,57.703 81.301,57.663C81.31,57.663 81.319,57.663 81.327,57.663C81.778,57.663 82.148,58.033 82.148,58.484C82.148,58.493 82.148,58.503 82.148,58.512C82.148,58.602 81.817,59.812 81.817,59.812L79.933,66.404C79.871,66.703 79.832,67.006 79.815,67.311C79.777,68.108 80.013,68.895 80.482,69.54C80.584,69.681 80.639,69.851 80.638,70.025C80.638,70.026 80.638,70.028 80.638,70.029C80.638,70.491 80.257,70.872 79.795,70.872C79.795,70.872 79.794,70.872 79.794,70.872L73.841,70.872C72.914,70.871 72.151,70.107 72.151,69.18C72.151,69.028 72.172,68.877 72.212,68.731L75.522,57.267C75.636,56.901 75.697,56.52 75.706,56.137C75.706,56.136 75.706,56.136 75.706,56.135C75.706,54.164 74.084,52.542 72.113,52.542C71.58,52.54 71.052,52.659 70.572,52.891L64.8,55.59L63.718,56.099C63.59,56.159 63.451,56.193 63.309,56.199C62.902,56.192 62.551,55.899 62.472,55.499C62.144,53.802 60.657,52.556 58.928,52.532C58.392,52.53 57.863,52.649 57.38,52.881L51.231,55.768L50.544,56.092C50.415,56.152 50.276,56.186 50.134,56.192C49.731,56.194 49.38,55.909 49.299,55.515C48.979,53.809 47.488,52.554 45.753,52.528C45.216,52.525 44.685,52.646 44.202,52.883L44.162,52.894L35.34,56.983C35.031,57.111 34.832,57.418 34.84,57.752C34.896,58.022 34.992,58.282 35.125,58.523C35.265,58.818 35.563,59.007 35.89,59.008C36.016,59.007 36.14,58.978 36.254,58.925L38.746,57.737C38.861,57.68 38.988,57.65 39.117,57.651C39.58,57.655 39.96,58.037 39.961,58.5C39.961,58.771 36.974,69 36.974,69C36.672,70.096 35.668,70.861 34.531,70.861L32.705,70.846C32.334,70.846 32.004,71.091 31.897,71.446C31.79,71.801 31.585,72.508 31.544,72.791C31.542,72.816 31.54,72.841 31.54,72.866C31.54,73.29 31.89,73.64 32.314,73.64C32.339,73.64 32.364,73.638 32.388,73.636L42.275,73.636L42.28,73.629L43.786,73.629C44.143,73.628 44.464,73.403 44.586,73.067L44.581,73.067L48.4,59.848C48.447,59.587 48.606,59.36 48.835,59.226L50.848,58.275L51.948,57.758C52.061,57.709 52.182,57.683 52.305,57.683C52.768,57.682 53.15,58.061 53.153,58.524C53.153,58.592 53.142,58.659 53.122,58.724C52.015,62.824 49.101,72.762 49.101,72.813C49.104,73.276 49.486,73.655 49.949,73.654L56.992,73.654C57.401,73.655 57.755,73.358 57.824,72.954L61.68,59.576C61.758,59.428 61.876,59.305 62.02,59.22L64.258,58.162L65.126,57.751C65.24,57.701 65.363,57.676 65.487,57.676C65.949,57.676 66.412,58.062 66.328,58.517C66.243,59.003 62.587,71.903 62.587,71.903C62.587,71.903 62.35,72.696 62.35,72.813C62.35,72.813 62.35,72.813 62.35,72.813C62.35,73.273 62.729,73.652 63.189,73.652C63.191,73.652 63.192,73.652 63.194,73.652L67.463,73.643L111.916,73.643C114.113,73.682 116.086,72.253 116.734,70.153L120.401,57.311C120.502,56.946 120.836,56.691 121.215,56.69L127.995,56.69C127.996,56.69 127.997,56.69 127.998,56.69C128.925,56.69 129.687,57.452 129.688,58.379C129.687,58.487 129.675,58.596 129.654,58.702L127.2,67.14C127.066,67.605 126.999,68.086 127,68.569C127,71.351 129.288,73.64 132.07,73.642L136.19,73.642L134.841,73.642L213.025,73.642C214.78,73.642 215.125,73.35 215.201,72.97C215.201,72.97 215.536,71.754 215.536,71.7C215.536,71.699 215.536,71.697 215.536,71.696C215.536,71.233 215.155,70.852 214.692,70.852C214.692,70.852 212.766,70.863 212.766,70.863C211.826,70.864 211.042,70.115 211,69.176C211.013,69.035 211.044,68.896 211.091,68.763L213.831,59.188L215.195,54.423L215.4,53.692ZM135.987,39.937L135.987,41.449C135.985,44.63 134.555,47.648 132.093,49.663C130.25,51.1 127.978,51.88 125.641,51.879L125.641,51.868L124.852,51.879L123.036,51.884C122.572,51.882 122.192,51.501 122.192,51.037L126.612,35.5C126.693,35.11 127.04,34.828 127.438,34.829L130.857,34.829L130.857,34.856C130.857,34.856 130.885,34.856 130.894,34.856C133.686,34.856 135.984,37.153 135.986,39.945M159.755,56.184C159.685,56.443 158.638,60.143 158.638,60.143L156.284,68.386C155.977,69.476 154.974,70.234 153.842,70.232L152.733,70.227C151.824,70.222 151.08,69.473 151.08,68.564C151.08,68.552 151.08,68.539 151.08,68.527C151.08,68.402 151.092,68.276 151.115,68.153L154,58.01C154.418,56.439 155.851,55.337 157.477,55.336L158.914,55.336C159.382,55.336 159.884,55.728 159.759,56.176M205.852,56.187C205.852,56.268 205,59.232 205,59.232L202.367,68.432C202.043,69.495 201.055,70.227 199.944,70.226L198.837,70.221C197.927,70.217 197.181,69.467 197.181,68.557C197.181,68.545 197.181,68.533 197.181,68.521C197.182,68.387 197.196,68.253 197.223,68.121L200.097,58.015C200.515,56.447 201.947,55.348 203.57,55.349L205,55.34C205.465,55.34 205.847,55.722 205.847,56.187" style="fill:black;fill-rule:nonzero;"/>
    </g>
</svg>
