<?xml version="1.0" encoding="UTF-8" standalone="no"?>
<!DOCTYPE svg PUBLIC "-//W3C//DTD SVG 1.1//EN" "http://www.w3.org/Graphics/SVG/1.1/DTD/svg11.dtd">
<svg width="100%" height="100%" viewBox="0 0 128 32" version="1.1" xmlns="http://www.w3.org/2000/svg" xmlns:xlink="http://www.w3.org/1999/xlink" xml:space="preserve" xmlns:serif="http://www.serif.com/" style="fill-rule:evenodd;clip-rule:evenodd;stroke-linejoin:round;stroke-miterlimit:2;">
    <g transform="matrix(0.870886,0,0,-0.870886,-25.081,100.783)">
        <g id="g3243">
            <g>
                <g transform="matrix(0.243134,0,0,-0.243134,28.7994,108.5)">
                    <path d="M43.59,61.96L27.17,61.96L27.17,40.98L37.84,40.98C39.86,40.98 41.58,40.93 43.6,40.82C46.314,40.717 48.831,39.36 50.41,37.15C51.274,36.011 51.825,34.667 52.01,33.25C52.19,32.01 52.21,30.95 52.09,29.69C51.657,25.065 47.715,21.495 43.07,21.52L27.17,21.52L27.17,89.54L0,89.54L0,0L44.4,0C46.17,0 47.66,0.03 49.43,0.13C61.22,0.76 70.93,7.31 75.92,18C78.469,23.286 79.445,29.195 78.73,35.02C77.496,47.649 68.126,58.077 55.7,60.65C51.729,61.545 47.67,61.984 43.6,61.96" style="fill-rule:nonzero;"/>
                </g>
                <g id="a" transform="matrix(0.243134,0,0,-0.243134,28.7994,108.5)">
                    <path d="M144.48,84.53C144.12,79.26 143.92,74.8 143.81,69.51C143.67,62.56 143.59,56.71 143.54,49.76C143.54,46.202 143.076,42.658 142.16,39.22C141.049,34.616 138.029,30.697 133.86,28.45C131.41,27.063 128.758,26.068 126,25.5C117.236,23.531 108.165,23.35 99.33,24.97C96.73,25.42 94.56,26.05 92.11,27.07C86.603,29.245 82.399,33.848 80.73,39.53C80.047,41.659 79.839,43.912 80.12,46.13C80.16,46.55 80.27,46.91 80.46,47.3L101.99,47.83C101.924,46.531 102.121,45.231 102.57,44.01C103.222,42.101 104.722,40.597 106.63,39.94C109.386,38.883 112.429,38.83 115.22,39.79C117.097,40.371 118.563,41.856 119.12,43.74C119.48,44.94 119.3,46.14 118.57,47.17C117.97,48.05 117.11,48.722 116.11,49.09C115.47,49.34 114.91,49.51 114.26,49.69C111.428,50.462 108.557,51.086 105.66,51.56C103.24,51.96 101.2,52.33 98.8,52.82C95.711,53.426 92.662,54.221 89.67,55.2C86.909,56.063 84.379,57.54 82.27,59.52C79.445,62.029 77.625,65.481 77.15,69.23C76.78,71.84 76.87,74.11 77.45,76.68C78.816,83.197 83.73,88.424 90.15,90.19C97.11,92.32 104.601,91.942 111.31,89.12C114.588,87.845 117.477,85.735 119.69,83L118.17,72C117.157,73.618 115.669,74.886 113.91,75.63C112.21,76.38 110.66,76.78 108.81,76.97C107.26,77.12 105.92,77.01 104.42,76.59C103.256,76.289 102.203,75.656 101.39,74.77C100.677,74.025 100.191,73.092 99.99,72.08C99.643,70.51 100.208,68.871 101.45,67.85C102.243,67.159 103.159,66.623 104.15,66.27C106.518,65.394 108.92,64.614 111.35,63.93C114.44,63.06 116.99,62.12 119.92,60.77C120.2,63.11 120.19,65.11 119.86,67.44C119.63,69.15 119.1,70.56 118.17,72L119.69,83C120.16,84.56 120.59,85.86 121.13,87.4C121.43,88.25 121.83,88.91 122.43,89.58L146.13,89.58C145.149,88.073 144.58,86.335 144.48,84.54" style="fill-rule:nonzero;"/>
                </g>
                <g id="b" transform="matrix(0.243134,0,0,-0.243134,28.7994,108.5)">
                    <path d="M172.83,32.34C175.799,29.705 179.146,27.531 182.76,25.89C188.657,23.059 195.411,22.559 201.66,24.49C208.49,26.371 213.889,31.646 215.93,38.43C216.965,41.603 217.478,44.923 217.45,48.26L217.45,89.54L192.05,89.54L192.05,52.42C192.05,51.18 191.89,50.12 191.53,48.94C190.929,46.865 189.404,45.178 187.4,44.37C182.963,42.46 177.74,44.189 175.32,48.37C174.313,50.037 173.793,51.953 173.82,53.9L173.82,89.54L149.22,89.54L149.22,25.58L172.29,25.58L172.83,32.34" style="fill-rule:nonzero;"/>
                </g>
                <g id="a1" serif:id="a" transform="matrix(0.243134,0,0,-0.243134,63.7134,108.5)">
                    <path d="M144.48,84.53C144.12,79.26 143.92,74.8 143.81,69.51C143.67,62.56 143.59,56.71 143.54,49.76C143.54,46.202 143.076,42.658 142.16,39.22C141.049,34.616 138.029,30.697 133.86,28.45C131.41,27.063 128.758,26.068 126,25.5C117.236,23.531 108.165,23.35 99.33,24.97C96.73,25.42 94.56,26.05 92.11,27.07C86.603,29.245 82.399,33.848 80.73,39.53C80.047,41.659 79.839,43.912 80.12,46.13C80.16,46.55 80.27,46.91 80.46,47.3L101.99,47.83C101.924,46.531 102.121,45.231 102.57,44.01C103.222,42.101 104.722,40.597 106.63,39.94C109.386,38.883 112.429,38.83 115.22,39.79C117.097,40.371 118.563,41.856 119.12,43.74C119.48,44.94 119.3,46.14 118.57,47.17C117.97,48.05 117.11,48.722 116.11,49.09C115.47,49.34 114.91,49.51 114.26,49.69C111.428,50.462 108.557,51.086 105.66,51.56C103.24,51.96 101.2,52.33 98.8,52.82C95.711,53.426 92.662,54.221 89.67,55.2C86.909,56.063 84.379,57.54 82.27,59.52C79.445,62.029 77.625,65.481 77.15,69.23C76.78,71.84 76.87,74.11 77.45,76.68C78.816,83.197 83.73,88.424 90.15,90.19C97.11,92.32 104.601,91.942 111.31,89.12C114.588,87.845 117.477,85.735 119.69,83L118.17,72C117.157,73.618 115.669,74.886 113.91,75.63C112.21,76.38 110.66,76.78 108.81,76.97C107.26,77.12 105.92,77.01 104.42,76.59C103.256,76.289 102.203,75.656 101.39,74.77C100.677,74.025 100.191,73.092 99.99,72.08C99.643,70.51 100.208,68.871 101.45,67.85C102.243,67.159 103.159,66.623 104.15,66.27C106.518,65.394 108.92,64.614 111.35,63.93C114.44,63.06 116.99,62.12 119.92,60.77C120.2,63.11 120.19,65.11 119.86,67.44C119.63,69.15 119.1,70.56 118.17,72L119.69,83C120.16,84.56 120.59,85.86 121.13,87.4C121.43,88.25 121.83,88.91 122.43,89.58L146.13,89.58C145.149,88.073 144.58,86.335 144.48,84.54" style="fill-rule:nonzero;"/>
                </g>
                <g transform="matrix(0.243134,0,0,-0.243134,28.7994,108.5)">
                    <path d="M323.58,66.03C325.41,66.34 326.94,66.73 328.7,67.31C330.135,67.759 331.213,68.964 331.5,70.44C331.869,72.03 331.379,73.701 330.21,74.84C329.075,76.017 327.579,76.781 325.96,77.01C323.7,77.37 321.7,77.19 319.56,76.41C318.563,76.064 317.638,75.539 316.83,74.86C315.768,73.988 314.992,72.817 314.6,71.5C314.252,70.398 314.089,69.245 314.12,68.09L290.7,68.09L290.7,69.45C290.7,71.65 291.04,73.52 291.81,75.59C292.99,78.69 294.6,81.09 297.03,83.35C300.025,86.205 303.686,88.267 307.68,89.35C315.904,91.793 324.575,92.34 333.04,90.95C337.014,90.377 340.86,89.126 344.41,87.25C345.985,86.439 347.462,85.45 348.81,84.3C355.084,79.187 357.546,70.673 354.97,63C354.094,60.159 352.421,57.629 350.15,55.71C347.098,53.01 343.474,51.038 339.55,49.94L336.99,49.21C332.235,47.87 327.398,46.842 322.51,46.13C321.13,45.93 319.97,45.71 318.61,45.39C318.014,45.249 317.435,45.048 316.88,44.79C315.853,44.33 315.19,43.305 315.19,42.18C315.19,41.777 315.275,41.378 315.44,41.01L315.55,40.79C316.275,39.455 317.515,38.471 318.98,38.07C321.66,37.3 324.12,37.37 326.75,38.25C329.233,39.07 330.871,41.469 330.73,44.08L353.31,44.08C353.31,41.445 352.843,38.831 351.93,36.36C351.05,33.821 349.443,31.595 347.31,29.96C345.495,28.501 343.46,27.339 341.28,26.52C339.169,25.689 336.977,25.079 334.74,24.7C329.439,23.752 324.043,23.45 318.67,23.8C315.43,23.98 312.7,24.38 309.53,25.12C305.27,26.12 301.83,27.77 298.39,30.47C295.562,32.628 293.447,35.586 292.32,38.96C290.954,43.034 291.103,47.467 292.74,51.44C294.465,55.977 298.053,59.565 302.59,61.29C304.96,62.23 307.03,62.85 309.53,63.36C314.46,64.38 318.63,65.17 323.59,66.02M400.3,24.36C397.77,23.96 395.61,23.79 393.05,23.79C390.49,23.79 388.34,23.96 385.8,24.36C378.754,25.365 372.214,28.609 367.15,33.61C361.557,38.819 358.128,45.949 357.55,53.57C357.089,58.194 357.513,62.864 358.8,67.33C360.8,74.55 364.58,80.13 370.53,84.68C374.229,87.586 378.553,89.592 383.16,90.54C386.409,91.268 389.73,91.624 393.06,91.6C396.56,91.6 399.52,91.3 402.95,90.54C407.557,89.592 411.881,87.586 415.58,84.68L401.84,69.7C400.288,73.151 396.841,75.381 393.057,75.381C391.693,75.381 390.344,75.091 389.1,74.53C386.935,73.593 385.207,71.865 384.27,69.7C383.372,67.742 382.762,65.663 382.46,63.53C381.78,59.03 381.86,55.13 382.73,50.67C383.18,48.36 383.96,46.47 385.25,44.49C386.976,41.869 389.912,40.288 393.05,40.288C396.188,40.288 399.124,41.869 400.85,44.49C402.104,46.356 402.962,48.459 403.37,50.67C404.24,55.14 404.33,59.04 403.65,63.53C403.31,65.78 402.77,67.63 401.84,69.7L415.58,84.68C421.345,80.399 425.48,74.276 427.3,67.33C428.61,62.63 428.99,58.43 428.55,53.57C427.974,45.949 424.544,38.818 418.95,33.61C413.887,28.607 407.347,25.363 400.3,24.36" style="fill-rule:nonzero;"/>
                </g>
                <g id="b1" serif:id="b" transform="matrix(0.243134,0,0,-0.243134,97.5796,108.5)">
                    <path d="M172.83,32.34C175.799,29.705 179.146,27.531 182.76,25.89C188.657,23.059 195.411,22.559 201.66,24.49C208.49,26.371 213.889,31.646 215.93,38.43C216.965,41.603 217.478,44.923 217.45,48.26L217.45,89.54L192.05,89.54L192.05,52.42C192.05,51.18 191.89,50.12 191.53,48.94C190.929,46.865 189.404,45.178 187.4,44.37C182.963,42.46 177.74,44.189 175.32,48.37C174.313,50.037 173.793,51.953 173.82,53.9L173.82,89.54L149.22,89.54L149.22,25.58L172.29,25.58L172.83,32.34" style="fill-rule:nonzero;"/>
                </g>
                <g transform="matrix(0.243134,0,0,-0.243134,28.7994,108.5)">
                    <path d="M505.26,0L505.26,16.9L529.17,16.9L529.17,0L505.26,0ZM505.26,25.59L505.26,89.55L529.17,89.55L529.17,25.59L505.26,25.59ZM593.4,81.25C588.844,86.178 582.817,89.507 576.22,90.74C571.58,91.68 567.52,91.88 562.81,91.39C556.832,90.855 551.128,88.628 546.37,84.97C542.425,82.091 539.142,78.402 536.74,74.15C534.82,70.895 533.538,67.304 532.96,63.57C532.06,58.13 532.3,53.35 533.73,48.03C537,35.93 546.09,27.36 558.36,24.81C565.36,23.36 571.58,23.51 578.51,25.3C583.229,26.46 587.563,28.836 591.08,32.19C593.332,34.243 595.195,36.686 596.58,39.4C598.3,42.584 599.086,46.189 598.85,49.8L576.98,49.8C576.567,46.976 575.039,44.431 572.74,42.74C569.776,40.418 565.645,40.217 562.47,42.24C560.302,43.541 558.696,45.607 557.97,48.03C556.099,53.719 556.001,59.844 557.69,65.59C558.338,68.024 559.667,70.224 561.52,71.93C563.6,73.977 566.541,74.908 569.42,74.43C571.212,74.2 572.858,73.316 574.04,71.95C575.307,70.578 576.142,68.863 576.44,67.02C576.68,65.67 576.81,64.52 576.89,63.15L599.94,63.15C600.492,69.843 598.103,76.456 593.4,81.25" style="fill-rule:nonzero;"/>
                </g>
            </g>
        </g>
    </g>
</svg>
