<?xml version="1.0" encoding="UTF-8" standalone="no"?>
<!DOCTYPE svg PUBLIC "-//W3C//DTD SVG 1.1//EN" "http://www.w3.org/Graphics/SVG/1.1/DTD/svg11.dtd">
<svg width="100%" height="100%" viewBox="0 0 128 32" version="1.1" xmlns="http://www.w3.org/2000/svg" xmlns:xlink="http://www.w3.org/1999/xlink" xml:space="preserve" xmlns:serif="http://www.serif.com/" style="fill-rule:evenodd;clip-rule:evenodd;stroke-linejoin:round;stroke-miterlimit:2;">
    <g transform="matrix(0.314219,0,0,0.314219,-112.929,-227.525)">
        <g id="layer1">
            <g>
                <g transform="matrix(2.44413,0,0,2.44413,358.298,729.558)">
                    <path d="M0.449,3.581L5.72,3.581L5.72,6.465L5.82,6.465C6.416,4.078 8.704,3.382 11.29,3.382C15.368,3.382 16.959,5.172 16.959,9.25C16.959,9.648 16.959,10.046 16.86,10.543L11.986,10.543C11.986,8.653 11.588,7.758 9.301,7.758C7.411,7.758 6.019,8.454 6.019,10.245L6.019,18.5L0.449,18.5L0.449,3.581Z" style="fill:black;fill-rule:nonzero;"/>
                </g>
                <g transform="matrix(2.44413,0,0,2.44413,358.298,729.558)">
                    <path d="M0.449,3.581L5.72,3.581L5.72,6.465L5.82,6.465C6.416,4.078 8.704,3.382 11.29,3.382C15.368,3.382 16.959,5.172 16.959,9.25C16.959,9.648 16.959,10.046 16.86,10.543L11.986,10.543C11.986,8.653 11.588,7.758 9.301,7.758C7.411,7.758 6.019,8.454 6.019,10.245L6.019,18.5L0.449,18.5L0.449,3.581ZM19.347,11.637C19.347,18.003 23.226,18.699 27.005,18.699L31.183,18.699C35.26,18.699 38.642,17.903 38.642,14.124L38.642,13.527L33.271,13.527C33.271,14.422 33.172,15.218 30.088,15.218L28.398,15.218C26.01,15.218 24.916,14.82 24.916,13.228L24.916,12.333L38.543,12.333L38.543,9.847C38.543,4.675 36.056,3.382 30.088,3.382L26.209,3.382C22.131,3.382 19.247,4.575 19.247,10.245L19.347,11.637ZM24.916,8.952C24.916,7.161 25.314,6.863 28.994,6.863C32.277,6.863 33.072,7.161 33.072,8.952L24.916,8.952Z" style="fill:black;fill-rule:nonzero;"/>
                </g>
                <g transform="matrix(2.44413,0,0,2.44413,358.298,729.558)">
                    <path d="M19.347,11.637C19.347,18.003 23.226,18.699 27.005,18.699L31.183,18.699C35.26,18.699 38.642,17.903 38.642,14.124L38.642,13.527L33.271,13.527C33.271,14.422 33.172,15.218 30.088,15.218L28.398,15.218C26.01,15.218 24.916,14.82 24.916,13.228L24.916,12.333L38.543,12.333L38.543,9.847C38.543,4.675 36.056,3.382 30.088,3.382L26.209,3.382C22.131,3.382 19.247,4.575 19.247,10.245L19.347,11.637ZM24.916,8.952C24.916,7.161 25.314,6.863 28.994,6.863C32.277,6.863 33.072,7.161 33.072,8.952L24.916,8.952ZM41.726,3.581L47.395,3.581L47.395,5.968L47.494,5.968C48.489,3.879 50.478,3.282 53.462,3.282C56.943,3.282 61.817,3.382 61.817,9.847L61.817,18.401L56.148,18.401L56.148,9.946C56.148,8.454 54.954,7.758 52.467,7.758L51.174,7.758C48.787,7.758 47.295,8.852 47.295,11.04L47.295,18.599L41.626,18.599L41.726,3.581Z" style="fill:black;fill-rule:nonzero;"/>
                </g>
                <g transform="matrix(2.44413,0,0,2.44413,358.298,729.558)">
                    <path d="M41.726,3.581L47.395,3.581L47.395,5.968L47.494,5.968C48.489,3.879 50.478,3.282 53.462,3.282C56.943,3.282 61.817,3.382 61.817,9.847L61.817,18.401L56.148,18.401L56.148,9.946C56.148,8.454 54.954,7.758 52.467,7.758L51.174,7.758C48.787,7.758 47.295,8.852 47.295,11.04L47.295,18.599L41.626,18.599L41.726,3.581ZM64.701,14.522C64.701,18.003 66.89,18.798 70.371,18.798L74.25,18.798C77.035,18.798 77.631,18.5 79.223,16.909L79.223,18.599L84.594,18.599L84.594,8.753C84.594,5.272 82.505,3.382 78.626,3.382L72.062,3.382C67.287,3.382 65.298,4.078 65.298,8.056L70.769,8.056C70.868,6.962 71.266,6.863 72.957,6.863L76.239,6.863C78.427,6.863 78.924,7.36 78.924,8.852L78.924,10.145C77.731,9.051 76.04,8.952 72.957,8.952C67.486,8.952 64.701,9.151 64.701,13.228L64.701,14.522ZM73.156,15.218C70.967,15.218 70.172,14.82 70.172,13.825C70.172,12.632 70.669,12.035 73.056,12.035L75.543,12.035C78.626,12.035 78.924,12.433 78.924,13.527C78.924,14.522 78.527,15.118 74.747,15.118L73.156,15.118L73.156,15.218Z" style="fill:black;fill-rule:nonzero;"/>
                </g>
                <g transform="matrix(2.44413,0,0,2.44413,358.298,729.558)">
                    <path d="M64.701,14.522C64.701,18.003 66.89,18.798 70.371,18.798L74.25,18.798C77.035,18.798 77.631,18.5 79.223,16.909L79.223,18.599L84.594,18.599L84.594,8.753C84.594,5.272 82.505,3.382 78.626,3.382L72.062,3.382C67.287,3.382 65.298,4.078 65.298,8.056L70.769,8.056C70.868,6.962 71.266,6.863 72.957,6.863L76.239,6.863C78.427,6.863 78.924,7.36 78.924,8.852L78.924,10.145C77.731,9.051 76.04,8.952 72.957,8.952C67.486,8.952 64.701,9.151 64.701,13.228L64.701,14.522ZM73.156,15.218C70.967,15.218 70.172,14.82 70.172,13.825C70.172,12.632 70.669,12.035 73.056,12.035L75.543,12.035C78.626,12.035 78.924,12.433 78.924,13.527C78.924,14.522 78.527,15.118 74.747,15.118L73.156,15.118L73.156,15.218ZM89.467,7.659L86.683,7.659L86.683,3.581L89.467,3.581L89.467,0.099L95.137,0.099L95.137,3.581L103.89,3.581L103.89,7.659L95.137,7.659L95.137,13.427C95.137,14.522 95.933,14.82 97.325,14.82C99.115,14.82 99.613,14.422 99.613,13.03L99.613,12.035L104.586,12.035L104.586,13.825C104.586,16.71 102.696,18.798 98.22,18.798L96.032,18.798C92.551,18.798 89.567,17.704 89.567,13.626L89.467,7.659Z" style="fill:black;fill-rule:nonzero;"/>
                </g>
                <g transform="matrix(2.44413,0,0,2.44413,358.298,729.558)">
                    <path d="M89.467,7.659L86.683,7.659L86.683,3.581L89.467,3.581L89.467,0.099L95.137,0.099L95.137,3.581L103.89,3.581L103.89,7.659L95.137,7.659L95.137,13.427C95.137,14.522 95.933,14.82 97.325,14.82C99.115,14.82 99.613,14.422 99.613,13.03L99.613,12.035L104.586,12.035L104.586,13.825C104.586,16.71 102.696,18.798 98.22,18.798L96.032,18.798C92.551,18.798 89.567,17.704 89.567,13.626L89.467,7.659ZM106.674,14.522C106.674,18.003 108.863,18.798 112.344,18.798L116.223,18.798C119.008,18.798 119.605,18.5 121.196,16.909L121.196,18.599L126.567,18.599L126.567,8.753C126.567,5.272 124.478,3.382 120.599,3.382L114.035,3.382C109.26,3.382 107.271,4.078 107.271,8.056L112.742,8.056C112.841,6.962 113.239,6.863 114.93,6.863L118.212,6.863C120.4,6.863 120.898,7.36 120.898,8.852L120.898,10.145C119.803,9.051 118.113,8.952 115.029,8.952C109.559,8.952 106.774,9.151 106.774,13.228L106.674,14.522ZM115.129,15.218C112.941,15.218 112.145,14.82 112.145,13.825C112.145,12.632 112.642,12.035 115.029,12.035L117.516,12.035C120.599,12.035 120.898,12.433 120.898,13.527C120.898,14.522 120.5,15.118 116.72,15.118L115.129,15.118L115.129,15.218Z" style="fill:black;fill-rule:nonzero;"/>
                </g>
                <g transform="matrix(2.44413,0,0,2.44413,358.298,729.558)">
                    <path d="M106.674,14.522C106.674,18.003 108.863,18.798 112.344,18.798L116.223,18.798C119.008,18.798 119.605,18.5 121.196,16.909L121.196,18.599L126.567,18.599L126.567,8.753C126.567,5.272 124.478,3.382 120.599,3.382L114.035,3.382C109.26,3.382 107.271,4.078 107.271,8.056L112.742,8.056C112.841,6.962 113.239,6.863 114.93,6.863L118.212,6.863C120.4,6.863 120.898,7.36 120.898,8.852L120.898,10.145C119.803,9.051 118.113,8.952 115.029,8.952C109.559,8.952 106.774,9.151 106.774,13.228L106.674,14.522ZM115.129,15.218C112.941,15.218 112.145,14.82 112.145,13.825C112.145,12.632 112.642,12.035 115.029,12.035L117.516,12.035C120.599,12.035 120.898,12.433 120.898,13.527C120.898,14.522 120.5,15.118 116.72,15.118L115.129,15.118L115.129,15.218Z" style="fill:black;fill-rule:nonzero;"/>
                </g>
                <g transform="matrix(2.44413,0,0,2.44413,358.298,729.558)">
                    <path d="M131.043,1.691C140.392,1.691 147.852,9.25 147.951,18.599L149.642,18.599C149.642,8.355 141.387,0.099 131.142,0.099L131.142,1.691L131.043,1.691Z" style="fill:black;fill-rule:nonzero;"/>
                </g>
                <g transform="matrix(2.44413,0,0,2.44413,358.298,729.558)">
                    <path d="M131.043,1.691C140.392,1.691 147.852,9.25 147.951,18.599L149.642,18.599C149.642,8.355 141.387,0.099 131.142,0.099L131.142,1.691L131.043,1.691Z" style="fill:black;fill-rule:nonzero;"/>
                </g>
                <g transform="matrix(2.44413,0,0,2.44413,358.298,729.558)">
                    <path d="M131.043,4.874C138.602,4.874 144.669,11.04 144.669,18.5L146.36,18.5C146.36,10.046 139.497,3.183 131.043,3.183L131.043,4.874Z" style="fill:black;fill-rule:nonzero;"/>
                </g>
                <g transform="matrix(2.44413,0,0,2.44413,358.298,729.558)">
                    <path d="M131.043,4.874C138.602,4.874 144.669,11.04 144.669,18.5L146.36,18.5C146.36,10.046 139.497,3.183 131.043,3.183L131.043,4.874Z" style="fill:black;fill-rule:nonzero;"/>
                </g>
                <g transform="matrix(2.44413,0,0,2.44413,358.298,729.558)">
                    <path d="M131.043,8.056C136.812,8.056 141.486,12.731 141.486,18.5L143.177,18.5C143.177,11.836 137.806,6.465 131.142,6.465L131.142,8.056L131.043,8.056Z" style="fill:black;fill-rule:nonzero;"/>
                </g>
                <g transform="matrix(2.44413,0,0,2.44413,358.298,729.558)">
                    <path d="M131.043,8.056C136.812,8.056 141.486,12.731 141.486,18.5L143.177,18.5C143.177,11.836 137.806,6.465 131.142,6.465L131.142,8.056L131.043,8.056Z" style="fill:black;fill-rule:nonzero;"/>
                </g>
                <g transform="matrix(2.44413,0,0,2.44413,358.298,729.558)">
                    <path d="M131.043,11.339C135.021,11.339 138.204,14.621 138.204,18.599L139.895,18.599C139.895,13.726 135.916,9.747 131.043,9.747L131.043,11.339Z" style="fill:black;fill-rule:nonzero;"/>
                </g>
                <g transform="matrix(2.44413,0,0,2.44413,358.298,729.558)">
                    <path d="M131.043,11.339C135.021,11.339 138.204,14.621 138.204,18.599L139.895,18.599C139.895,13.726 135.916,9.747 131.043,9.747L131.043,11.339Z" style="fill:black;fill-rule:nonzero;"/>
                </g>
                <g transform="matrix(2.44413,0,0,2.44413,358.298,729.558)">
                    <path d="M131.043,14.522C133.231,14.522 135.021,16.312 135.021,18.5L136.712,18.5C136.712,15.417 134.226,12.831 131.043,12.831L131.043,14.522Z" style="fill:black;fill-rule:nonzero;"/>
                </g>
                <g transform="matrix(2.44413,0,0,2.44413,358.298,729.558)">
                    <path d="M131.043,14.522C133.231,14.522 135.021,16.312 135.021,18.5L136.712,18.5C136.712,15.417 134.226,12.831 131.043,12.831L131.043,14.522ZM131.043,18.5L133.131,18.5C133.131,17.306 132.236,16.411 131.043,16.411L131.043,18.5Z" style="fill:black;fill-rule:nonzero;"/>
                </g>
                <g transform="matrix(2.44413,0,0,2.44413,358.298,729.558)">
                    <path d="M131.043,18.5L133.131,18.5C133.131,17.306 132.236,16.411 131.043,16.411L131.043,18.5Z" style="fill:black;fill-rule:nonzero;"/>
                </g>
                <g transform="matrix(2.44413,0,0,2.44413,358.298,729.558)">
                    <path d="M41.726,36.901L43.416,36.901L43.416,35.21C43.914,36.503 45.505,37.099 47.395,37.099L49.981,37.099C53.363,37.099 55.65,36.304 55.65,32.524L55.65,30.634C55.65,27.153 54.258,25.86 49.881,25.86L47.097,25.86C45.008,25.86 44.013,26.358 43.615,27.452L43.615,21.384L41.726,21.384L41.726,36.901ZM53.86,32.425C53.86,34.513 53.164,35.608 50.18,35.608L47.196,35.608C44.411,35.608 43.615,34.414 43.615,32.425L43.615,30.336C43.615,27.75 45.107,27.253 47.594,27.253L50.08,27.253C52.567,27.253 53.86,27.75 53.86,30.237L53.86,32.425Z" style="fill:black;fill-rule:nonzero;"/>
                </g>
                <g transform="matrix(2.44413,0,0,2.44413,358.298,729.558)">
                    <path d="M41.726,36.901L43.416,36.901L43.416,35.21C43.914,36.503 45.505,37.099 47.395,37.099L49.981,37.099C53.363,37.099 55.65,36.304 55.65,32.524L55.65,30.634C55.65,27.153 54.258,25.86 49.881,25.86L47.097,25.86C45.008,25.86 44.013,26.358 43.615,27.452L43.615,21.384L41.726,21.384L41.726,36.901ZM53.86,32.425C53.86,34.513 53.164,35.608 50.18,35.608L47.196,35.608C44.411,35.608 43.615,34.414 43.615,32.425L43.615,30.336C43.615,27.75 45.107,27.253 47.594,27.253L50.08,27.253C52.567,27.253 53.86,27.75 53.86,30.237L53.86,32.425ZM70.072,36.901L71.962,36.901L71.962,29.54C71.962,26.258 69.674,25.761 66.193,25.761L63.309,25.761C60.027,25.761 58.734,26.556 58.734,28.546L58.734,29.043L60.623,29.043L60.623,28.645C60.623,27.75 61.121,27.153 63.408,27.153L66.094,27.153C68.879,27.153 70.172,27.452 70.172,29.341L70.172,31.43C69.575,30.336 68.68,30.137 66.293,30.137L63.309,30.137C60.126,30.137 58.336,30.435 58.336,32.922L58.336,33.618C58.336,35.707 59.032,36.901 61.817,36.901L66.094,36.901C68.879,36.901 69.476,36.602 69.973,35.608L70.072,36.901ZM70.072,33.917C70.072,35.309 68.779,35.508 65.398,35.508L62.911,35.508C60.424,35.508 59.927,35.011 59.927,33.718L59.927,33.419C59.927,32.027 60.623,31.728 63.01,31.728L65.795,31.728C68.58,31.728 69.973,31.927 69.973,33.419L70.072,33.917Z" style="fill:black;fill-rule:nonzero;"/>
                </g>
                <g transform="matrix(2.44413,0,0,2.44413,358.298,729.558)">
                    <path d="M70.072,36.901L71.962,36.901L71.962,29.54C71.962,26.258 69.674,25.761 66.193,25.761L63.309,25.761C60.027,25.761 58.734,26.556 58.734,28.546L58.734,29.043L60.623,29.043L60.623,28.645C60.623,27.75 61.121,27.153 63.408,27.153L66.094,27.153C68.879,27.153 70.172,27.452 70.172,29.341L70.172,31.43C69.575,30.336 68.68,30.137 66.293,30.137L63.309,30.137C60.126,30.137 58.336,30.435 58.336,32.922L58.336,33.618C58.336,35.707 59.032,36.901 61.817,36.901L66.094,36.901C68.879,36.901 69.476,36.602 69.973,35.608L70.072,36.901ZM70.072,33.917C70.072,35.309 68.779,35.508 65.398,35.508L62.911,35.508C60.424,35.508 59.927,35.011 59.927,33.718L59.927,33.419C59.927,32.027 60.623,31.728 63.01,31.728L65.795,31.728C68.58,31.728 69.973,31.927 69.973,33.419L70.072,33.917ZM76.239,27.452L73.752,27.452L73.752,25.96L76.14,25.96L76.14,23.374L78.029,23.374L78.029,25.96L85.39,25.96L85.39,27.452L78.029,27.452L78.029,32.922C78.029,35.011 78.726,35.608 80.715,35.608L81.312,35.608C83.798,35.608 84.196,35.11 84.196,32.823L84.196,32.027L85.688,32.027L85.688,33.22C85.688,35.409 85.489,37.099 81.51,37.099L80.516,37.099C77.035,37.099 76.239,35.409 76.239,33.618L76.239,27.452Z" style="fill:black;fill-rule:nonzero;"/>
                </g>
                <g transform="matrix(2.44413,0,0,2.44413,358.298,729.558)">
                    <path d="M76.239,27.452L73.752,27.452L73.752,25.96L76.14,25.96L76.14,23.374L78.029,23.374L78.029,25.96L85.39,25.96L85.39,27.452L78.029,27.452L78.029,32.922C78.029,35.011 78.726,35.608 80.715,35.608L81.312,35.608C83.798,35.608 84.196,35.11 84.196,32.823L84.196,32.027L85.688,32.027L85.688,33.22C85.688,35.409 85.489,37.099 81.51,37.099L80.516,37.099C77.035,37.099 76.239,35.409 76.239,33.618L76.239,27.452ZM88.871,27.452L86.484,27.452L86.484,25.96L88.871,25.96L88.871,23.374L90.76,23.374L90.76,25.96L98.121,25.96L98.121,27.452L90.76,27.452L90.76,32.922C90.76,35.011 91.457,35.608 93.446,35.608L94.043,35.608C96.529,35.608 96.828,35.11 96.828,32.823L96.828,32.027L98.32,32.027L98.32,33.22C98.32,35.409 98.121,37.099 94.142,37.099L93.148,37.099C89.666,37.099 88.871,35.409 88.871,33.618L88.871,27.452Z" style="fill:black;fill-rule:nonzero;"/>
                </g>
                <g transform="matrix(2.44413,0,0,2.44413,358.298,729.558)">
                    <path d="M88.871,27.452L86.484,27.452L86.484,25.96L88.871,25.96L88.871,23.374L90.76,23.374L90.76,25.96L98.121,25.96L98.121,27.452L90.76,27.452L90.76,32.922C90.76,35.011 91.457,35.608 93.446,35.608L94.043,35.608C96.529,35.608 96.828,35.11 96.828,32.823L96.828,32.027L98.32,32.027L98.32,33.22C98.32,35.409 98.121,37.099 94.142,37.099L93.148,37.099C89.666,37.099 88.871,35.409 88.871,33.618L88.871,27.452ZM100.11,32.524C100.11,36.602 102.895,37 105.282,37L108.664,37C112.145,37 114.134,36.204 114.134,33.718L114.134,33.519L112.244,33.519C112.145,35.21 111.15,35.508 108.863,35.508L106.376,35.508C103.193,35.508 102,34.911 102,32.325L102,31.629L114.134,31.629L114.134,30.435C114.134,26.556 111.747,25.661 108.465,25.661L105.481,25.661C102.895,25.661 100.11,26.159 100.11,30.038L100.11,32.524ZM112.244,30.237L101.9,30.237C102.099,27.75 102.795,27.253 105.68,27.253L108.365,27.253C111.349,27.253 112.244,28.347 112.244,29.441L112.244,30.237Z" style="fill:black;fill-rule:nonzero;"/>
                </g>
                <g transform="matrix(2.44413,0,0,2.44413,358.298,729.558)">
                    <path d="M100.11,32.524C100.11,36.602 102.895,37 105.282,37L108.664,37C112.145,37 114.134,36.204 114.134,33.718L114.134,33.519L112.244,33.519C112.145,35.21 111.15,35.508 108.863,35.508L106.376,35.508C103.193,35.508 102,34.911 102,32.325L102,31.629L114.134,31.629L114.134,30.435C114.134,26.556 111.747,25.661 108.465,25.661L105.481,25.661C102.895,25.661 100.11,26.159 100.11,30.038L100.11,32.524ZM112.244,30.237L101.9,30.237C102.099,27.75 102.795,27.253 105.68,27.253L108.365,27.253C111.349,27.253 112.244,28.347 112.244,29.441L112.244,30.237ZM117.118,25.96L118.809,25.96L118.809,27.551C119.505,26.358 120.798,25.661 122.191,25.761L123.881,25.761C127.363,25.761 128.457,26.855 128.457,29.54L128.457,30.833L126.766,30.833L126.766,30.336C126.766,27.651 126.169,27.153 122.887,27.153L121.793,27.153C120.4,26.954 119.107,28.048 118.908,29.441L118.908,36.702L117.019,36.702L117.118,25.96Z" style="fill:black;fill-rule:nonzero;"/>
                </g>
                <g transform="matrix(2.44413,0,0,2.44413,358.298,729.558)">
                    <path d="M117.118,25.96L118.809,25.96L118.809,27.551C119.505,26.358 120.798,25.661 122.191,25.761L123.881,25.761C127.363,25.761 128.457,26.855 128.457,29.54L128.457,30.833L126.766,30.833L126.766,30.336C126.766,27.651 126.169,27.153 122.887,27.153L121.793,27.153C120.4,26.954 119.107,28.048 118.908,29.441L118.908,36.702L117.019,36.702L117.118,25.96ZM131.043,25.96L132.933,25.96L132.933,36.901L131.043,36.901L131.043,25.96Z" style="fill:black;fill-rule:nonzero;"/>
                </g>
                <g transform="matrix(2.44413,0,0,2.44413,358.298,729.558)">
                    <path d="M131.043,25.96L132.933,25.96L132.933,36.901L131.043,36.901L131.043,25.96ZM136.115,32.524C136.115,36.602 138.9,37 141.287,37L144.669,37C148.15,37 150.14,36.204 150.14,33.718L150.14,33.519L148.25,33.519C148.15,35.21 147.156,35.508 144.868,35.508L142.381,35.508C139.199,35.508 138.005,34.911 138.005,32.325L138.005,31.629L150.14,31.629L150.14,30.435C150.14,26.556 147.752,25.661 144.47,25.661L141.486,25.661C138.9,25.661 136.115,26.159 136.115,30.038L136.115,32.524ZM148.349,30.237L138.005,30.237C138.204,27.75 138.9,27.253 141.785,27.253L144.47,27.253C147.454,27.253 148.349,28.347 148.349,29.441L148.349,30.237Z" style="fill:black;fill-rule:nonzero;"/>
                </g>
                <g transform="matrix(2.44413,0,0,2.44413,358.298,729.558)">
                    <path d="M136.115,32.524C136.115,36.602 138.9,37 141.287,37L144.669,37C148.15,37 150.14,36.204 150.14,33.718L150.14,33.519L148.25,33.519C148.15,35.21 147.156,35.508 144.868,35.508L142.381,35.508C139.199,35.508 138.005,34.911 138.005,32.325L138.005,31.629L150.14,31.629L150.14,30.435C150.14,26.556 147.752,25.661 144.47,25.661L141.486,25.661C138.9,25.661 136.115,26.159 136.115,30.038L136.115,32.524ZM148.349,30.237L138.005,30.237C138.204,27.75 138.9,27.253 141.785,27.253L144.47,27.253C147.454,27.253 148.349,28.347 148.349,29.441L148.349,30.237ZM152.626,33.121L154.317,33.121L154.317,33.618C154.317,35.011 155.013,35.508 156.903,35.508L160.881,35.508C163.666,35.508 164.562,35.409 164.562,33.718L164.562,33.618C164.562,32.524 164.263,32.027 162.075,32.027L156.406,32.027C153.82,32.027 152.825,31.231 152.825,29.142L152.825,28.546C152.825,26.755 153.82,25.761 158.395,25.761L161.18,25.761C165.357,25.761 165.954,26.954 165.954,28.546L165.954,29.142L164.263,29.142L164.263,29.043C164.263,27.352 163.169,27.352 161.08,27.352L157.898,27.352C155.212,27.352 154.715,27.651 154.715,28.844L154.715,29.242C154.715,30.137 155.013,30.634 156.903,30.634L161.777,30.634C164.562,30.634 166.451,30.933 166.451,33.917C166.451,37 163.567,37.099 161.379,37.099L157.997,37.099C155.312,37.099 152.726,37.099 152.726,33.817L152.726,33.121L152.626,33.121Z" style="fill:black;fill-rule:nonzero;"/>
                </g>
                <g transform="matrix(2.44413,0,0,2.44413,358.298,729.558)">
                    <path d="M152.626,33.121L154.317,33.121L154.317,33.618C154.317,35.011 155.013,35.508 156.903,35.508L160.881,35.508C163.666,35.508 164.562,35.409 164.562,33.718L164.562,33.618C164.562,32.524 164.263,32.027 162.075,32.027L156.406,32.027C153.82,32.027 152.825,31.231 152.825,29.142L152.825,28.546C152.825,26.755 153.82,25.761 158.395,25.761L161.18,25.761C165.357,25.761 165.954,26.954 165.954,28.546L165.954,29.142L164.263,29.142L164.263,29.043C164.263,27.352 163.169,27.352 161.08,27.352L157.898,27.352C155.212,27.352 154.715,27.651 154.715,28.844L154.715,29.242C154.715,30.137 155.013,30.634 156.903,30.634L161.777,30.634C164.562,30.634 166.451,30.933 166.451,33.917C166.451,37 163.567,37.099 161.379,37.099L157.997,37.099C155.312,37.099 152.726,37.099 152.726,33.817L152.726,33.121L152.626,33.121Z" style="fill:black;fill-rule:nonzero;"/>
                </g>
            </g>
        </g>
    </g>
</svg>
